# This file uses centimeters as units for non-parametric coordinates.

mtllib ninjato.mtl
g default
v -0.144034 1.279691 2.910875
v 0.144037 1.279688 2.910875
v 0.144037 1.465371 2.910875
v -0.144034 1.465374 2.910875
v -0.144035 1.279691 2.937818
v 0.144037 1.279688 2.937818
v 0.144037 1.465371 2.937818
v -0.144034 1.465374 2.937818
v -0.064073 1.364055 2.937818
v 0.064076 1.372531 2.937818
v -0.064074 1.381003 2.937818
v -0.064075 1.372532 5.223162
v 0.023543 1.372533 5.143754
v -0.064075 1.367475 5.040218
v 0.064076 1.372531 5.040218
v -0.064075 1.377589 5.040218
v -0.064073 1.364323 3.101609
v 0.064076 1.372531 3.101609
v -0.064074 1.380737 3.101609
v -0.012172 1.361944 5.040218
v -0.012171 1.356132 3.101609
v -0.012173 1.355643 2.937818
v -0.034093 1.279691 2.937818
v -0.034093 1.279691 2.910875
v -0.010728 1.342042 2.905085
v -0.013470 1.343533 2.334822
v -0.013471 1.401529 2.334822
v -0.010730 1.403018 2.905085
v -0.034092 1.465372 2.910875
v -0.034092 1.465372 2.937818
v -0.012173 1.389421 2.937818
v -0.012170 1.388925 3.101609
v -0.012171 1.383118 5.040218
v -0.020264 1.368582 5.091986
v -0.020267 1.376480 5.091986
v -0.070911 1.372531 2.334822
v -0.041916 1.343532 2.334822
v -0.084349 1.329451 2.905926
v -0.068191 1.372530 2.905085
v -0.039200 1.342045 2.905085
v 0.041921 1.343533 2.334822
v 0.070913 1.372533 2.334822
v 0.039204 1.342041 2.905085
v 0.068196 1.372533 2.905085
v 0.084354 1.329451 2.905926
v -0.084349 1.415608 2.905926
v -0.039200 1.403020 2.905085
v -0.041918 1.401530 2.334822
v 0.039201 1.403020 2.905085
v 0.084354 1.415611 2.905926
v 0.041920 1.401529 2.334822
v 0.144038 1.372528 2.937818
v 0.144038 1.372529 2.910875
v -0.013469 1.372530 2.334822
vt 0.112273 0.823448
vt 0.981184 0.104689
vt 0.185453 0.868919
vt 0.919928 0.104394
vt 0.919307 0.232853
vt 0.037250 0.801836
vt 0.096441 0.908777
vt 0.036029 0.961930
vt 0.258942 0.962427
vt 0.147972 0.962847
vt 0.035046 0.961953
vt 0.035362 0.801853
vt 0.261889 0.704848
vt 0.038007 0.703024
vt 0.259450 0.703511
vt 0.035556 0.703038
vt 0.167633 0.821833
vt 0.147134 0.890322
vt 0.112471 0.797859
vt 0.201476 0.758005
vt 0.097596 0.757158
vt 0.148496 0.894679
vt 0.200325 0.909623
vt 0.149427 0.772103
vt 0.920357 0.016947
vt 0.259916 0.963754
vt 0.146994 0.962191
vt 0.185990 0.798458
vt 0.111931 0.868323
vt 0.980772 0.189015
vt 0.981398 0.061383
vt 0.185793 0.824046
vt 0.858264 0.188418
vt 0.858885 0.060788
vt 0.858675 0.104093
vt 0.126904 0.821747
vt 0.261140 0.803661
vt 0.259255 0.802326
vt 0.137147 0.775120
vt 0.157583 0.775164
vt 0.371364 0.184332
vt 0.319323 0.184332
vt 0.319323 0.034961
vt 0.371364 0.034961
vt 0.319323 0.333701
vt 0.371364 0.333700
vt 0.310568 0.368977
vt 0.310630 0.667715
vt 0.258588 0.667715
vt 0.258526 0.368977
vt 0.371419 0.540240
vt 0.319377 0.540241
vt 0.319411 0.667717
vt 0.371453 0.667716
vt 0.310568 0.034961
vt 0.310568 0.241500
vt 0.258526 0.241500
vt 0.258526 0.034961
vt 0.099648 0.556240
vt 0.096701 0.035867
vt 0.156232 0.035867
vt 0.153312 0.556240
vt 0.069048 0.556240
vt 0.066129 0.035867
vt 0.187391 0.035867
vt 0.184471 0.556240
vt 0.034967 0.035867
vt 0.037890 0.556240
vt 0.125659 0.036234
vt 0.122712 0.556607
vt 0.069050 0.556607
vt 0.066127 0.036234
vt 0.156232 0.036234
vt 0.153311 0.556607
vt 0.037888 0.556607
vt 0.034967 0.036234
vt 0.184469 0.556607
vt 0.187391 0.036234
vt 0.373988 0.903601
vt 0.373988 0.926627
vt 0.324564 0.915114
vt 0.897722 0.896434
vt 0.897722 0.933805
vt 0.941971 0.895828
vt 0.941971 0.934414
vt 0.583509 0.297447
vt 0.493956 0.310479
vt 0.404403 0.277457
vt 0.666367 0.323511
vt 0.510503 0.323511
vt 0.404404 0.323511
vt 0.666367 0.811541
vt 0.510506 0.811541
vt 0.666367 0.852774
vt 0.510501 0.852774
vt 0.404406 0.811541
vt 0.404405 0.852774
vt 0.822233 0.323511
vt 0.822229 0.811541
vt 0.928326 0.811541
vt 0.928331 0.323511
vt 0.822233 0.852774
vt 0.838773 0.310479
vt 0.749224 0.297447
vt 0.928326 0.852774
vt 0.928331 0.277457
vn -0.000016 -0.999997 -0.002613
vn -0.000017 -0.999997 -0.002613
vn -0.000008 -0.999997 -0.002615
vn -0.000008 -0.999997 -0.002615
vn 0.000007 0.999997 -0.002612
vn 0.000006 0.999997 -0.002612
vn -0.000018 0.999997 -0.002612
vn -0.000018 0.999997 -0.002612
vn 0.000000 -0.000000 -1.000000
vn 0.000000 -0.000000 -1.000000
vn 0.000000 -0.000000 -1.000000
vn 0.000000 -0.000000 -1.000000
vn 0.000274 -0.095187 -0.995459
vn -0.000256 -0.094996 -0.995478
vn -0.000488 -0.090554 -0.995891
vn 0.027963 -0.058127 -0.997918
vn 0.024621 -0.063627 -0.997670
vn -0.000011 -1.000000 -0.000001
vn -0.000011 -1.000000 -0.000001
vn -0.000018 -1.000000 0.000000
vn -0.000018 -1.000000 0.000000
vn 1.000000 -0.000003 0.000003
vn 1.000000 -0.000003 0.000003
vn 1.000000 0.000006 0.000003
vn 1.000000 0.000006 0.000003
vn 0.000004 1.000000 0.000003
vn 0.000009 1.000000 0.000002
vn 0.000009 1.000000 0.000002
vn 0.000004 1.000000 0.000003
vn -1.000000 0.000002 -0.000000
vn -1.000000 0.000002 -0.000000
vn -1.000000 0.000002 -0.000000
vn -1.000000 0.000002 -0.000000
vn 0.000001 -0.000000 1.000000
vn 0.000001 -0.000000 1.000000
vn 0.000000 0.000001 1.000000
vn -0.000001 -0.000001 1.000000
vn -0.000003 -0.000001 1.000000
vn -0.000001 -0.000004 1.000000
vn 0.000000 -0.000004 1.000000
vn -0.000000 -0.000004 1.000000
vn 0.000001 -0.000001 1.000000
vn 0.000001 -0.000001 1.000000
vn 0.000001 -0.000000 1.000000
vn 0.000001 -0.000000 1.000000
vn -0.126903 -0.991909 0.003374
vn 0.052272 -0.998625 0.003967
vn 0.030679 -0.997851 0.057907
vn 0.084933 0.994068 0.067928
vn 0.030653 0.997853 0.057877
vn 0.003340 0.999508 0.031193
vn -1.000000 0.000009 -0.000001
vn -1.000000 0.000009 -0.000001
vn -1.000000 0.000061 -0.000000
vn 0.052655 -0.998611 0.001826
vn 0.177329 -0.984151 0.001475
vn 0.173439 -0.984842 0.002155
vn 0.177299 0.984156 0.001475
vn 0.052653 0.998611 0.001826
vn 0.052271 0.998625 0.003964
vn 0.173408 0.984848 0.002153
vn -1.000000 0.000001 -0.000001
vn -1.000000 0.000001 -0.000001
vn 0.003300 -0.999507 0.031205
vn 0.064842 -0.997894 0.001818
vn 0.213261 -0.976994 0.001455
vn 0.213245 0.976997 0.001479
vn 0.064813 0.997896 0.001840
vn -1.000000 -0.000051 0.000002
vn -1.000000 -0.000051 0.000002
vn -0.133154 -0.991093 0.002291
vn -0.157940 -0.987446 0.002280
vn -0.000001 -1.000000 -0.000003
vn -0.000001 -1.000000 -0.000003
vn -0.000032 -0.999997 -0.002610
vn -0.000032 -0.999997 -0.002610
vn 0.000053 0.999997 -0.002611
vn 0.000053 0.999997 -0.002611
vn 0.000275 0.095185 -0.995459
vn -0.000256 0.094994 -0.995478
vn 0.000736 0.089581 -0.995979
vn -0.049789 0.034287 -0.998171
vn -0.046652 0.039289 -0.998138
vn 0.000016 1.000000 0.000000
vn 0.000016 1.000000 0.000000
vn -0.157976 0.987440 0.002300
vn -0.133111 0.991098 0.002290
vn -0.126853 0.991916 0.003371
vn 0.084963 -0.994064 0.067961
vn -0.049787 -0.034290 -0.998171
vn 0.000736 -0.089584 -0.995979
vn -0.046656 -0.039287 -0.998138
vn 0.080221 0.000000 -0.996777
vn 0.072678 0.000000 -0.997356
vn 0.027963 0.058127 -0.997917
vn 0.024622 0.063626 -0.997670
vn -0.076218 -0.000000 -0.997091
vn 0.000000 -0.000000 -1.000000
vn 0.000000 -0.000000 -1.000000
vn -0.000488 0.090555 -0.995891
vn -0.716064 -0.698030 0.002502
vn -0.716064 -0.698030 0.002502
vn -0.716064 -0.698030 0.002502
vn -0.716064 -0.698030 0.002502
vn 0.716124 -0.697969 0.002499
vn 0.716124 -0.697969 0.002499
vn 0.716124 -0.697969 0.002499
vn 0.716124 -0.697969 0.002499
vn -0.716108 0.697985 0.002503
vn -0.716108 0.697985 0.002503
vn -0.716108 0.697985 0.002503
vn -0.716108 0.697985 0.002503
vn 0.716045 0.698049 0.002501
vn 0.716045 0.698049 0.002501
vn 0.716045 0.698049 0.002501
vn 0.716046 0.698049 0.002501
vn 1.000000 -0.000012 0.000002
vn 1.000000 -0.000012 0.000002
vn 0.000000 -0.000000 -1.000000
vn 0.000000 0.000000 -1.000000
vn 0.000000 0.000000 -1.000000
s 1
g Ninjato_Handle
usemtl lambert4SG
f 25/59/1 26/60/2 41/61/3 43/62/4
s 2
f 27/69/5 28/70/6 49/71/7 51/72/8
s 3
f 26/35/9 54/4/10 42/5/11 41/33/12
s 4
f 24/6/13 25/1/14 43/29/15 45/7/16 2/8/17
s 5
f 23/51/18 24/52/19 2/45/20 6/46/21
s 6
f 52/41/22 53/42/23 3/43/24 7/44/25
s 7
f 3/55/26 29/56/27 30/57/28 7/58/29
s off
f 4/47/30 1/48/31 5/49/32 8/50/33
s 8
f 22/17/34 23/38/35 6/9/36 10/18/37
f 10/18/37 52/27/38 7/11/39
f 7/11/39 30/12/40 31/36/41 10/18/37
f 8/16/42 5/15/43 9/40/44 11/39/45
s 9
f 14/101/46 20/98/47 34/103/48
s 10
f 13/86/49 35/87/50 12/88/51
s 11
f 16/79/52 14/80/53 12/81/54
s 9
f 20/98/47 21/99/55 18/92/56 15/89/57
s 10
f 18/92/58 32/93/59 33/90/60 15/89/61
s 11
f 19/82/62 17/83/63 14/80/53 16/79/52
s 9
f 14/101/46 34/103/48 12/106/64
s 10
f 15/89/61 33/90/60 35/87/50 13/86/49
s 9
f 21/99/55 22/102/65 10/94/66 18/92/56
s 10
f 10/94/67 31/95/68 32/93/59 18/92/58
s 11
f 11/84/69 9/85/70 17/83/63 19/82/62
s 9
f 17/100/71 21/99/55 20/98/47 14/101/46
f 9/105/72 22/102/65 21/99/55 17/100/71
s 8
f 5/15/43 23/38/35 22/17/34 9/40/44
s 5
f 1/53/73 24/52/19 23/51/18 5/54/74
s 1
f 40/63/75 37/64/76 26/60/2 25/59/1
s 2
f 48/73/77 47/74/78 28/70/6 27/69/5
s 4
f 29/37/79 28/32/80 47/28/81 46/20/82 4/13/83
s 7
f 30/57/28 29/56/27 4/47/84 8/50/85
s 8
f 31/36/41 30/12/40 8/16/42 11/39/45
s 10
f 32/93/59 31/95/68 11/97/86 19/96/87
f 33/90/60 32/93/59 19/96/87 16/91/88
s 9
f 34/103/48 20/98/47 15/89/57 13/104/89
f 12/106/64 34/103/48 13/104/89
s 10
f 35/87/50 33/90/60 16/91/88
f 12/88/51 35/87/50 16/91/88
s 4
f 38/21/90 40/19/91 25/1/14 24/6/13 1/14/92
f 53/10/93 44/22/94 50/23/95 3/26/96
f 46/20/82 39/24/97 38/21/90 1/14/92 4/13/83
s 3
f 36/25/98 54/4/10 26/35/9 37/34/99
s 4
f 50/23/95 49/3/100 28/32/80 29/37/79 3/26/96
s off
f 36/67/101 37/64/102 40/63/103 39/68/104
f 41/61/105 42/65/106 44/66/107 43/62/108
f 39/77/109 47/74/110 48/73/111 36/78/112
f 49/71/113 44/75/114 42/76/115 51/72/116
s 4
f 38/21/90 39/24/97 40/19/91
f 43/29/15 44/22/94 45/7/16
f 46/20/82 47/28/81 39/24/97
f 49/3/100 50/23/95 44/22/94
s 8
f 6/9/36 52/27/38 10/18/37
s 6
f 2/45/117 53/42/23 52/41/22 6/46/118
s 4
f 45/7/16 44/22/94 53/10/93 2/8/17
s 3
f 36/25/98 48/31/119 27/2/120 54/4/10
f 42/5/11 54/4/10 27/2/120 51/30/121
