# This file uses centimeters as units for non-parametric coordinates.

mtllib throwing star.mtl
g default
v 0.817142 2.264520 1.779331
v 0.811318 2.300750 1.457403
v 0.781215 2.584437 1.815984
v 0.775391 2.620667 1.494056
v 0.780621 2.584370 1.815990
v 0.771557 2.620232 1.494096
v 0.816549 2.264453 1.779337
v 0.807484 2.300314 1.457443
v 0.806222 2.438954 1.678215
v 0.804298 2.448274 1.594985
v 0.784097 2.445982 1.595195
v 0.786022 2.436662 1.678425
v 0.810183 2.399777 1.631577
v 0.789983 2.397485 1.631788
v 0.785060 2.441322 1.636810
v 0.780137 2.485158 1.641833
v 0.800337 2.487451 1.641622
v 0.805260 2.443614 1.636600
v 0.788652 2.519667 1.678112
v 0.785053 2.519258 1.678149
v 0.806755 2.358468 1.659643
v 0.803156 2.358060 1.659680
v 0.787281 2.526889 1.613728
v 0.783447 2.526454 1.613768
v 0.805384 2.365691 1.595260
v 0.801550 2.365256 1.595299
v 0.798794 2.419775 1.551918
v 0.794960 2.419340 1.551958
v 0.791608 2.483758 1.559249
v 0.787775 2.483323 1.559289
v 0.798962 2.401206 1.714158
v 0.802294 2.401584 1.714124
v 0.791777 2.465189 1.721489
v 0.795108 2.465567 1.721454
v 0.789398 2.408046 1.690752
v 0.809598 2.410338 1.690542
v 0.783359 2.461828 1.696914
v 0.803559 2.464120 1.696704
v 0.811967 2.386428 1.657400
v 0.791767 2.384135 1.657611
v 0.799802 2.494753 1.669811
v 0.779602 2.492460 1.670022
v 0.810762 2.392260 1.605316
v 0.790562 2.389967 1.605526
v 0.798597 2.500585 1.617727
v 0.778397 2.498292 1.617937
v 0.801020 2.476051 1.583027
v 0.780820 2.473758 1.583237
v 0.806883 2.423845 1.577045
v 0.786683 2.421553 1.577256
vt 0.486264 0.626024
vt 0.500270 0.502961
vt 0.616322 0.516042
vt 0.649670 0.594019
vt 0.715980 0.615657
vt 0.897784 1.000000
vt 0.564052 0.736739
vt 0.552902 0.662895
vt 0.485677 0.619587
vt 0.552315 0.656458
vt 0.499683 0.496524
vt 0.563941 0.735517
vt 0.897673 0.998779
vt 0.715868 0.614436
vt 0.649084 0.587583
vt 0.615736 0.509606
vt 0.615556 0.284206
vt 0.615445 0.282985
vt 0.999889 0.100675
vt 1.000000 0.101897
vt 0.263537 0.563529
vt 0.263634 0.564590
vt 0.000017 0.898293
vt 0.000000 0.898104
vt 0.514276 0.379898
vt 0.587512 0.358793
vt 0.736423 0.436037
vt 0.666350 0.447463
vt 0.665764 0.441027
vt 0.513689 0.373461
vt 0.736312 0.434815
vt 0.586925 0.352357
vt 0.349254 0.403109
vt 0.349841 0.409544
vt 0.384217 0.489879
vt 0.383631 0.483443
vt 0.442263 0.342421
vt 0.441676 0.335985
vt 0.435904 0.262784
vt 0.102216 0.000000
vt 0.283980 0.383907
vt 0.384400 0.715316
vt 0.407066 0.640086
vt 0.332070 0.554090
vt 0.384505 0.716462
vt 0.407652 0.646522
vt 0.332657 0.560527
vt 0.102233 0.000190
vt 0.436009 0.263930
vt 0.284077 0.384969
vn 0.988451 0.151505 -0.003424
vn 0.993626 0.112464 -0.007656
vn 0.992076 0.116737 -0.046457
vn 0.987167 0.154029 -0.042142
vn 0.987167 0.154029 -0.042142
vn 0.987167 0.154029 -0.042142
vn 0.987167 0.154029 -0.042142
vn 0.987167 0.154029 -0.042142
vn -0.110883 0.987374 0.113124
vn -0.110883 0.987374 0.113126
vn -0.071345 0.694319 0.716122
vn -0.071345 0.694318 0.716123
vn -0.993502 -0.113068 0.013045
vn -0.997120 -0.073851 0.017260
vn -0.997231 -0.071195 -0.021470
vn -0.997231 -0.071195 -0.021470
vn -0.997231 -0.071195 -0.021470
vn -0.997231 -0.071195 -0.021470
vn -0.997231 -0.071195 -0.021470
vn -0.993746 -0.108649 -0.025770
vn 0.090070 -0.731595 0.675764
vn 0.090070 -0.731593 0.675765
vn 0.106336 -0.897747 0.427485
vn 0.106336 -0.897747 0.427485
vn 0.068209 -0.668745 -0.740356
vn 0.068208 -0.668737 -0.740364
vn 0.038945 -0.425831 -0.903964
vn 0.038945 -0.425831 -0.903964
vn 0.105453 -0.888359 0.446876
vn 0.105454 -0.888370 0.446853
vn 0.077920 -0.614924 0.784727
vn 0.077920 -0.614924 0.784727
vn 0.997233 0.073304 -0.012384
vn 0.995562 0.079278 -0.050706
vn 0.995562 0.079278 -0.050706
vn 0.995562 0.079278 -0.050706
vn 0.995562 0.079278 -0.050706
vn 0.995562 0.079278 -0.050706
vn -0.091837 0.748832 -0.656367
vn -0.091837 0.748833 -0.656365
vn -0.022980 0.111246 -0.993527
vn -0.022980 0.111245 -0.993527
vn -0.988338 -0.152052 0.008302
vn -0.988837 -0.145947 -0.030033
vn -0.988837 -0.145947 -0.030033
vn -0.988837 -0.145947 -0.030033
vn -0.988837 -0.145947 -0.030033
vn -0.988837 -0.145947 -0.030033
vn -0.057113 0.577950 0.814071
vn -0.057113 0.577951 0.814070
vn 0.022976 -0.111249 0.993527
vn 0.022976 -0.111248 0.993527
vn 0.073119 -0.708669 -0.701742
vn 0.073120 -0.708669 -0.701742
vn 0.110880 -0.987374 -0.113131
vn 0.110880 -0.987374 -0.113132
vn -0.991728 -0.117336 0.052029
vn -0.986300 -0.158031 0.047311
vn -0.986300 -0.158031 0.047311
vn -0.986300 -0.158031 0.047311
vn -0.986300 -0.158031 0.047311
vn -0.986300 -0.158031 0.047311
vn -0.995463 -0.076439 0.056659
vn -0.995463 -0.076439 0.056659
vn -0.995463 -0.076439 0.056659
vn -0.995463 -0.076439 0.056659
vn -0.995463 -0.076439 0.056659
vn -0.106227 0.897762 -0.427481
vn -0.078448 0.620074 -0.780612
vn -0.078450 0.620091 -0.780598
vn -0.106227 0.897762 -0.427481
vn 0.993657 0.107998 0.031346
vn 0.988227 0.148702 0.035994
vn 0.988227 0.148702 0.035994
vn 0.988227 0.148702 0.035994
vn 0.988227 0.148702 0.035994
vn 0.988227 0.148702 0.035994
vn 0.997390 0.067110 0.026645
vn 0.997390 0.067110 0.026645
vn 0.997390 0.067110 0.026645
vn 0.997390 0.067110 0.026645
vn 0.997390 0.067110 0.026645
vn -0.101453 0.845881 -0.523634
vn -0.101453 0.845878 -0.523640
vn 0.082150 -0.780473 -0.619769
vn 0.039630 -0.431753 -0.901121
vn 0.039631 -0.431763 -0.901116
vn 0.082150 -0.780473 -0.619769
vn -0.055348 0.563643 0.824162
vn -0.055349 0.563646 0.824160
vn -0.082067 0.780486 0.619764
vn -0.082067 0.780486 0.619764
vn 0.100411 -0.835075 0.540896
vn 0.100411 -0.835076 0.540894
vn -0.077938 0.614931 -0.784720
vn -0.077938 0.614931 -0.784720
vn -0.098481 0.815494 -0.570326
vn -0.098482 0.815507 -0.570307
vn 0.057939 -0.584736 -0.809152
vn 0.057939 -0.584735 -0.809153
vn -0.038886 0.425841 0.903962
vn -0.038886 0.425841 0.903962
vn -0.080408 0.767054 0.636525
vn -0.080410 0.767065 0.636510
vn 0.091263 -0.743305 0.662698
vn 0.091263 -0.743306 0.662697
s 1
g polySurface1 Shuriken_4
usemtl lambert5SG
f 17/1/1 18/2/2 10/3/3 47/4/4 29/5/5 4/6/6 23/7/7 45/8/8
s 2
f 16/9/9 17/1/10 45/8/11 46/10/12
s 3
f 15/11/13 16/9/14 46/10/15 24/12/16 6/13/17 30/14/18 48/15/19 11/16/20
s 4
f 25/17/21 26/18/22 8/19/23 2/20/24
s 5
f 29/5/25 30/14/26 6/13/27 4/6/28
s 6
f 33/21/29 34/22/30 3/23/31 5/24/32
s 1
f 18/2/2 13/25/33 43/26/34 25/17/35 2/20/36 27/27/37 49/28/38 10/3/3
s 5
f 49/28/39 50/29/40 11/16/41 10/3/42
s 3
f 14/30/43 15/11/13 11/16/20 50/29/44 28/31/45 8/19/46 26/18/47 44/32/48
s 6
f 35/33/49 36/34/50 9/35/51 12/36/52
s 4
f 39/37/53 40/38/54 14/30/55 13/25/56
s 3
f 12/36/57 15/11/13 14/30/43 40/38/58 22/39/59 7/40/60 31/41/61 35/33/62
f 5/24/63 20/42/64 42/43/65 16/9/14 15/11/13 12/36/57 37/44/66 33/21/67
s 2
f 3/23/68 19/45/69 20/42/70 5/24/71
s 1
f 9/35/72 18/2/2 17/1/1 41/46/73 19/45/74 3/23/75 34/22/76 38/47/77
f 1/48/78 21/49/79 39/37/80 13/25/33 18/2/2 9/35/72 36/34/81 32/50/82
s 2
f 20/42/70 19/45/69 41/46/83 42/43/84
s 4
f 7/40/85 22/39/86 21/49/87 1/48/88
s 2
f 24/12/89 23/7/90 4/6/91 6/13/92
s 4
f 43/26/93 44/32/94 26/18/22 25/17/21
s 5
f 2/20/95 8/19/96 28/31/97 27/27/98
f 47/4/99 48/15/100 30/14/26 29/5/25
s 6
f 7/40/101 1/48/102 32/50/103 31/41/104
f 37/44/105 38/47/106 34/22/30 33/21/29
f 31/41/104 32/50/103 36/34/50 35/33/49
f 12/36/52 9/35/51 38/47/106 37/44/105
s 4
f 21/49/87 22/39/86 40/38/54 39/37/53
s 2
f 42/43/84 41/46/83 17/1/10 16/9/9
s 4
f 13/25/56 14/30/55 44/32/94 43/26/93
s 2
f 46/10/12 45/8/11 23/7/90 24/12/89
s 5
f 10/3/42 11/16/41 48/15/100 47/4/99
f 27/27/98 28/31/97 50/29/40 49/28/39
